HIERARCHY
ROOT Hips
{
	OFFSET 0.000000 0.000000 0.000000 
	CHANNELS 6 Xposition Yposition Zposition Zrotation Yrotation Xrotation
	JOINT LeftUpLeg
	{
		OFFSET 1.363060 -1.794630 0.839290 
		CHANNELS 3 Zrotation Yrotation Xrotation
		JOINT LeftLeg
		{
			OFFSET 2.448110 -6.726130 0.000000 
			CHANNELS 3 Zrotation Yrotation Xrotation
			JOINT LeftFoot
			{
				OFFSET 2.562200 -7.039590 0.000000 
				CHANNELS 3 Zrotation Yrotation Xrotation
				JOINT LeftToeBase
				{
					OFFSET 0.157640 -0.433110 2.322550 
					CHANNELS 3 Zrotation Yrotation Xrotation
					End Site
					{
						OFFSET 0.000000 0.000000 0.000000 
					}
				}
			}
		}
	}
	JOINT RightUpLeg
	{
		OFFSET -1.305520 -1.794630 0.839290 
		CHANNELS 3 Zrotation Yrotation Xrotation
		JOINT RightLeg
		{
			OFFSET -2.542530 -6.985550 0.000000 
			CHANNELS 3 Zrotation Yrotation Xrotation
			JOINT RightFoot
			{
				OFFSET -2.568260 -7.056230 0.000000 
				CHANNELS 3 Zrotation Yrotation Xrotation
				JOINT RightToeBase
				{
					OFFSET -0.164730 -0.452590 2.363150 
					CHANNELS 3 Zrotation Yrotation Xrotation
					End Site
					{
						OFFSET 0.000000 0.000000 0.000000 
					}
				}
			}
		}
	}
	JOINT Spine
	{
		OFFSET 0.028270 2.035590 -0.193380 
		CHANNELS 3 Zrotation Yrotation Xrotation
		JOINT Spine1
		{
			OFFSET 0.056720 2.048850 -0.042750 
			CHANNELS 3 Zrotation Yrotation Xrotation
			JOINT Neck1
			{
				OFFSET -0.054170 1.746240 0.172020 
				CHANNELS 3 Zrotation Yrotation Xrotation
				JOINT Head
				{
					OFFSET 0.104070 1.761360 -0.123970 
					CHANNELS 3 Zrotation Yrotation Xrotation
					End Site
					{
						OFFSET 0.000000 0.000000 0.000000 
					}
				}
			}
			JOINT LeftArm
			{
				OFFSET 3.362410 1.200890 -0.311210 
				CHANNELS 3 Zrotation Yrotation Xrotation
				JOINT LeftForeArm
				{
					OFFSET 4.983000 -0.000000 -0.000000 
					CHANNELS 3 Zrotation Yrotation Xrotation
					JOINT LeftHand
					{
						OFFSET 3.483560 -0.000000 -0.000000 
						CHANNELS 3 Zrotation Yrotation Xrotation
						JOINT LeftHandIndex1
						{
							OFFSET 0.715260 -0.000000 -0.000000 
							CHANNELS 3 Zrotation Yrotation Xrotation
							End Site
							{
								OFFSET 0.000000 0.000000 0.000000 
							}
						}
					}
				}
			}
			JOINT RightArm
			{
				OFFSET -3.136600 1.374050 -0.404650 
				CHANNELS 3 Zrotation Yrotation Xrotation
				JOINT RightForeArm
				{
					OFFSET -5.241900 -0.000000 -0.000000 
					CHANNELS 3 Zrotation Yrotation Xrotation
					JOINT RightHand
					{
						OFFSET -3.444170 -0.000000 -0.000000 
						CHANNELS 3 Zrotation Yrotation Xrotation
						JOINT RightHandIndex1
						{
							OFFSET -0.622530 -0.000000 -0.000000 
							CHANNELS 3 Zrotation Yrotation Xrotation
							End Site
							{
								OFFSET 0.000000 0.000000 0.000000 
							}
						}
					}
				}
			}
		}
	}
}
MOTION
Frames: 9
Frame Time: 0.041667
-10.320201 17.862045 13.038127 -179.592355 -79.479328 -178.470764 -13.085291 -4.313855 -8.424530 -0.239630 6.784549 20.408097 1.006669 -6.093822 -2.159857 0.419200 -4.155900 -11.515600 9.681637 6.428189 -16.474663 -3.030392 -11.268902 33.737215 -1.313324 4.775704 -4.695528 -0.029400 -1.106500 3.041900 1.239986 -0.834729 1.712457 2.082271 -0.539711 -4.251793 5.305353 -8.131355 29.212426 3.581000 -5.356000 16.740000 -79.665757 -3.925439 -1.391854 14.904629 -21.305385 -3.215505 -1.482712 -2.134812 3.486353 -7.125000 0.000000 0.000000 82.274620 -7.457751 -4.083729 -19.408677 28.376436 -5.198389 0.344264 -0.207314 8.429741 7.125000 0.000000 0.000000 
-10.327016 17.866955 13.004855 -179.133793 -79.564687 -178.986746 -12.884185 -4.237118 -8.276839 -0.261960 6.717995 20.214296 1.027317 -6.264593 -2.020271 0.407900 -4.100100 -11.358400 9.379221 6.244085 -16.450321 -2.941104 -11.158941 33.335285 -1.181327 4.133394 -4.235609 -0.056800 -1.538000 4.230500 1.261579 -0.809333 1.754016 2.084854 -0.531813 -4.199974 5.205019 -8.106851 29.174000 3.518400 -5.340400 16.680600 -79.706498 -4.048913 -1.337051 14.932167 -21.334068 -3.226804 -1.474620 -2.129189 3.626261 -7.125000 0.000000 0.000000 82.270115 -7.590885 -4.372270 -19.258978 28.193739 -5.121341 0.343350 -0.210972 8.835384 7.125000 0.000000 0.000000 
-10.335835 17.869361 12.971883 -179.384593 -79.609825 -178.800371 -12.852326 -4.299472 -8.030853 -0.293625 6.643347 20.001892 1.006053 -6.104203 -2.010440 0.462200 -4.361100 -12.094700 8.948048 5.926500 -16.471123 -2.857686 -11.059541 32.950387 -1.050809 3.458022 -3.922779 -0.057300 -1.545200 4.250300 1.241006 -0.847131 1.769126 2.053090 -0.553061 -4.183561 5.193946 -8.076921 29.212035 3.529400 -5.342100 16.692700 -79.735657 -4.088334 -1.362447 14.959416 -21.366327 -3.238077 -1.473049 -2.101326 3.782235 -7.125000 0.000000 0.000000 82.304541 -7.690678 -4.560896 -19.072574 27.953246 -5.020989 0.359219 -0.211691 8.886148 7.125000 0.000000 0.000000 
-10.345957 17.870263 12.941116 -179.591172 -79.699590 -178.651152 -12.821005 -4.496302 -7.736941 -0.328470 6.568139 19.785846 0.976699 -5.875026 -2.034476 0.541500 -4.714900 -13.097100 8.500270 5.479762 -16.516934 -2.779805 -10.963931 32.577964 -0.941061 2.886369 -3.675361 -0.057200 -1.542700 4.243500 1.248250 -0.909030 1.772117 2.059859 -0.585762 -4.170081 5.129601 -8.060298 29.429313 3.528400 -5.377300 16.829500 -79.809904 -4.040732 -1.227277 15.020921 -21.447674 -3.265751 -1.465568 -2.087152 3.630903 -7.125000 0.000000 0.000000 82.277669 -7.845047 -4.528600 -18.870678 27.684071 -4.909062 0.391237 -0.216032 8.143893 7.125000 0.000000 0.000000 
-10.355779 17.872467 12.908745 -179.542838 -79.821916 -178.753744 -12.704867 -4.736924 -7.439590 -0.362621 6.490319 19.560456 0.960400 -5.781041 -1.918689 0.475300 -4.421300 -12.265100 8.102930 5.100585 -16.491952 -2.704575 -10.868701 32.213382 -0.807365 2.200064 -3.418508 -0.053700 -1.495800 4.114200 1.287690 -0.954758 1.789315 2.124634 -0.612334 -4.120098 5.020007 -8.075824 29.632020 3.491200 -5.421600 16.956100 -79.933317 -4.021975 -1.096682 15.108796 -21.566393 -3.305331 -1.463945 -2.104673 3.514323 -7.125000 0.000000 0.000000 82.157433 -7.970868 -4.555517 -18.649861 27.398458 -4.793023 0.408149 -0.223513 7.650335 7.125000 0.000000 0.000000 
-10.365901 17.875374 12.871965 -179.271520 -79.950692 -179.016209 -12.529707 -4.858488 -7.246668 -0.398805 6.404341 19.306745 0.949221 -5.714661 -1.771726 0.431500 -4.215400 -11.683500 7.781638 4.728464 -16.500936 -2.633716 -10.776219 31.864094 -0.653054 1.421913 -3.145274 -0.046900 -1.397500 3.843200 1.319580 -0.927181 1.803833 2.120161 -0.602506 -4.050604 4.911868 -8.117298 29.731428 3.440100 -5.458800 17.019400 -80.086669 -4.047697 -0.895576 15.216627 -21.707539 -3.353451 -1.471794 -2.120627 3.616215 -7.125000 0.000000 0.000000 82.091354 -8.093269 -4.832279 -18.476460 27.180245 -4.706122 0.409123 -0.223397 7.540037 7.125000 0.000000 0.000000 
-10.376524 17.879783 12.830575 -178.618353 -80.054878 -179.591235 -12.266247 -4.782778 -7.166166 -0.437110 6.301545 19.001576 0.960885 -5.789324 -1.630618 0.443100 -4.271000 -11.840300 7.532129 4.470420 -16.521383 -2.570206 -10.690823 31.546304 -0.500701 0.662753 -2.912961 -0.076200 -1.780200 4.898600 1.315330 -0.859492 1.783741 1.968788 -0.567627 -4.025665 4.854600 -8.121451 29.686730 3.398000 -5.453600 16.940800 -80.111133 -4.012122 -0.520337 15.292683 -21.808577 -3.388871 -1.486445 -2.121808 3.569332 -7.125000 0.000000 0.000000 82.186926 -8.289186 -5.207651 -18.312920 26.971793 -4.624470 0.413959 -0.220768 7.507694 7.125000 0.000000 0.000000 
-10.386546 17.884494 12.788583 -178.732486 -80.151051 -179.466716 -12.137261 -4.563244 -7.054592 -0.474965 6.180415 18.661307 0.988159 -6.037193 -1.418854 0.438800 -4.250600 -11.782800 7.123772 4.383860 -16.421890 -2.518380 -10.628155 31.283547 -0.287135 -0.396802 -2.730433 -0.103000 -2.069100 5.696700 1.296412 -0.811967 1.790216 1.891329 -0.546151 -3.962516 4.829964 -8.152249 29.666154 3.361300 -5.451300 16.891300 -80.126142 -4.020872 -0.220027 15.333296 -21.859283 -3.407922 -1.488936 -2.112126 3.476419 -7.125000 0.000000 0.000000 82.226293 -8.393318 -5.624164 -18.141959 26.755561 -4.540515 0.414435 -0.219265 7.504150 7.125000 0.000000 0.000000 
-10.397570 17.888402 12.749598 -179.659198 -80.211512 -178.590286 -12.178553 -4.378309 -6.837084 -0.518452 6.040165 18.281700 1.002872 -6.230676 -1.220742 0.423200 -4.175400 -11.570700 6.561958 4.194218 -16.318135 -2.480876 -10.587557 31.076410 -0.089331 -1.350044 -2.365860 -0.108200 -2.121300 5.840900 1.310441 -0.810417 1.801249 2.003832 -0.549651 -3.897987 4.687317 -8.220044 29.967033 3.289400 -5.515900 17.103100 -80.258539 -4.002947 0.031322 15.382953 -21.920867 -3.430950 -1.472540 -2.128885 3.335577 -7.125000 0.000000 0.000000 82.103699 -8.420784 -6.128030 -17.958284 26.523518 -4.449940 0.414654 -0.226525 7.624117 7.125000 0.000000 0.000000 
